<mxfile host="app.diagrams.net" agent="Mozilla/5.0 (Windows NT 10.0; Win64; x64) AppleWebKit/537.36 (KHTML, like Gecko) Chrome/135.0.0.0 Safari/537.36" version="26.3.0">
  <diagram id="C5RBs43oDa-KdzZeNtuy" name="Page-1">
    <mxGraphModel grid="1" page="1" gridSize="10" guides="1" tooltips="1" connect="1" arrows="1" fold="1" pageScale="1" pageWidth="827" pageHeight="1169" math="0" shadow="0">
      <root>
        <mxCell id="WIyWlLk6GJQsqaUBKTNV-0" />
        <mxCell id="WIyWlLk6GJQsqaUBKTNV-1" parent="WIyWlLk6GJQsqaUBKTNV-0" />
        <mxCell id="aPpTX1lo7TZhna0kk5Tj-1" style="edgeStyle=orthogonalEdgeStyle;rounded=0;orthogonalLoop=1;jettySize=auto;html=1;" edge="1" parent="WIyWlLk6GJQsqaUBKTNV-1" source="WIyWlLk6GJQsqaUBKTNV-3" target="aPpTX1lo7TZhna0kk5Tj-0">
          <mxGeometry relative="1" as="geometry" />
        </mxCell>
        <mxCell id="WIyWlLk6GJQsqaUBKTNV-3" value="Start" style="rounded=1;whiteSpace=wrap;html=1;fontSize=12;glass=0;strokeWidth=1;shadow=0;" vertex="1" parent="WIyWlLk6GJQsqaUBKTNV-1">
          <mxGeometry x="354" y="80" width="120" height="40" as="geometry" />
        </mxCell>
        <mxCell id="aPpTX1lo7TZhna0kk5Tj-3" style="edgeStyle=orthogonalEdgeStyle;rounded=0;orthogonalLoop=1;jettySize=auto;html=1;" edge="1" parent="WIyWlLk6GJQsqaUBKTNV-1" source="aPpTX1lo7TZhna0kk5Tj-0">
          <mxGeometry relative="1" as="geometry">
            <mxPoint x="414" y="350" as="targetPoint" />
          </mxGeometry>
        </mxCell>
        <mxCell id="aPpTX1lo7TZhna0kk5Tj-7" style="edgeStyle=orthogonalEdgeStyle;rounded=0;orthogonalLoop=1;jettySize=auto;html=1;entryX=0.5;entryY=0;entryDx=0;entryDy=0;" edge="1" parent="WIyWlLk6GJQsqaUBKTNV-1">
          <mxGeometry relative="1" as="geometry">
            <mxPoint x="560" y="360" as="targetPoint" />
            <mxPoint x="464" y="260" as="sourcePoint" />
          </mxGeometry>
        </mxCell>
        <mxCell id="aPpTX1lo7TZhna0kk5Tj-8" style="edgeStyle=orthogonalEdgeStyle;rounded=0;orthogonalLoop=1;jettySize=auto;html=1;" edge="1" parent="WIyWlLk6GJQsqaUBKTNV-1">
          <mxGeometry relative="1" as="geometry">
            <mxPoint x="260" y="355" as="targetPoint" />
            <mxPoint x="364" y="255" as="sourcePoint" />
            <Array as="points">
              <mxPoint x="261" y="255" />
            </Array>
          </mxGeometry>
        </mxCell>
        <mxCell id="aPpTX1lo7TZhna0kk5Tj-0" value="Input what to calculate" style="shape=parallelogram;perimeter=parallelogramPerimeter;whiteSpace=wrap;html=1;fixedSize=1;" vertex="1" parent="WIyWlLk6GJQsqaUBKTNV-1">
          <mxGeometry x="354" y="220" width="120" height="60" as="geometry" />
        </mxCell>
        <mxCell id="aPpTX1lo7TZhna0kk5Tj-17" style="edgeStyle=orthogonalEdgeStyle;rounded=0;orthogonalLoop=1;jettySize=auto;html=1;entryX=0.5;entryY=0;entryDx=0;entryDy=0;" edge="1" parent="WIyWlLk6GJQsqaUBKTNV-1" source="aPpTX1lo7TZhna0kk5Tj-11" target="aPpTX1lo7TZhna0kk5Tj-14">
          <mxGeometry relative="1" as="geometry">
            <mxPoint x="560" y="520" as="targetPoint" />
          </mxGeometry>
        </mxCell>
        <mxCell id="aPpTX1lo7TZhna0kk5Tj-11" value="Simple&lt;div&gt;interest&lt;/div&gt;" style="rhombus;whiteSpace=wrap;html=1;" vertex="1" parent="WIyWlLk6GJQsqaUBKTNV-1">
          <mxGeometry x="520" y="360" width="80" height="80" as="geometry" />
        </mxCell>
        <mxCell id="aPpTX1lo7TZhna0kk5Tj-18" style="edgeStyle=orthogonalEdgeStyle;rounded=0;orthogonalLoop=1;jettySize=auto;html=1;entryX=0.507;entryY=-0.1;entryDx=0;entryDy=0;entryPerimeter=0;" edge="1" parent="WIyWlLk6GJQsqaUBKTNV-1" source="aPpTX1lo7TZhna0kk5Tj-12" target="aPpTX1lo7TZhna0kk5Tj-15">
          <mxGeometry relative="1" as="geometry">
            <mxPoint x="414" y="510" as="targetPoint" />
          </mxGeometry>
        </mxCell>
        <mxCell id="aPpTX1lo7TZhna0kk5Tj-12" value="Compound interest" style="rhombus;whiteSpace=wrap;html=1;" vertex="1" parent="WIyWlLk6GJQsqaUBKTNV-1">
          <mxGeometry x="374" y="360" width="80" height="80" as="geometry" />
        </mxCell>
        <mxCell id="aPpTX1lo7TZhna0kk5Tj-19" style="edgeStyle=orthogonalEdgeStyle;rounded=0;orthogonalLoop=1;jettySize=auto;html=1;" edge="1" parent="WIyWlLk6GJQsqaUBKTNV-1" source="aPpTX1lo7TZhna0kk5Tj-13">
          <mxGeometry relative="1" as="geometry">
            <mxPoint x="260" y="520" as="targetPoint" />
          </mxGeometry>
        </mxCell>
        <mxCell id="aPpTX1lo7TZhna0kk5Tj-13" value="Annuity&lt;div&gt;plan&lt;/div&gt;" style="rhombus;whiteSpace=wrap;html=1;" vertex="1" parent="WIyWlLk6GJQsqaUBKTNV-1">
          <mxGeometry x="220" y="360" width="80" height="80" as="geometry" />
        </mxCell>
        <mxCell id="aPpTX1lo7TZhna0kk5Tj-23" style="edgeStyle=orthogonalEdgeStyle;rounded=0;orthogonalLoop=1;jettySize=auto;html=1;entryX=0.5;entryY=0;entryDx=0;entryDy=0;" edge="1" parent="WIyWlLk6GJQsqaUBKTNV-1" source="aPpTX1lo7TZhna0kk5Tj-14" target="aPpTX1lo7TZhna0kk5Tj-20">
          <mxGeometry relative="1" as="geometry" />
        </mxCell>
        <mxCell id="aPpTX1lo7TZhna0kk5Tj-14" value="Input&amp;nbsp;&lt;div&gt;Principal,&amp;nbsp;&lt;/div&gt;&lt;div&gt;Rate, Time&lt;/div&gt;" style="shape=parallelogram;perimeter=parallelogramPerimeter;whiteSpace=wrap;html=1;fixedSize=1;" vertex="1" parent="WIyWlLk6GJQsqaUBKTNV-1">
          <mxGeometry x="500" y="525" width="120" height="60" as="geometry" />
        </mxCell>
        <mxCell id="aPpTX1lo7TZhna0kk5Tj-24" style="edgeStyle=orthogonalEdgeStyle;rounded=0;orthogonalLoop=1;jettySize=auto;html=1;entryX=0.5;entryY=0;entryDx=0;entryDy=0;" edge="1" parent="WIyWlLk6GJQsqaUBKTNV-1" source="aPpTX1lo7TZhna0kk5Tj-15" target="aPpTX1lo7TZhna0kk5Tj-21">
          <mxGeometry relative="1" as="geometry" />
        </mxCell>
        <mxCell id="aPpTX1lo7TZhna0kk5Tj-15" value="Input&amp;nbsp;&lt;div&gt;Principal,&amp;nbsp;&lt;/div&gt;&lt;div&gt;Rate, Time, Frequency&lt;/div&gt;" style="shape=parallelogram;perimeter=parallelogramPerimeter;whiteSpace=wrap;html=1;fixedSize=1;" vertex="1" parent="WIyWlLk6GJQsqaUBKTNV-1">
          <mxGeometry x="354" y="525" width="120" height="60" as="geometry" />
        </mxCell>
        <mxCell id="aPpTX1lo7TZhna0kk5Tj-25" style="edgeStyle=orthogonalEdgeStyle;rounded=0;orthogonalLoop=1;jettySize=auto;html=1;entryX=0.5;entryY=0;entryDx=0;entryDy=0;" edge="1" parent="WIyWlLk6GJQsqaUBKTNV-1" source="aPpTX1lo7TZhna0kk5Tj-16" target="aPpTX1lo7TZhna0kk5Tj-22">
          <mxGeometry relative="1" as="geometry" />
        </mxCell>
        <mxCell id="aPpTX1lo7TZhna0kk5Tj-16" value="Input&lt;div&gt;&amp;nbsp;Payment, Rate, Periods&lt;/div&gt;" style="shape=parallelogram;perimeter=parallelogramPerimeter;whiteSpace=wrap;html=1;fixedSize=1;" vertex="1" parent="WIyWlLk6GJQsqaUBKTNV-1">
          <mxGeometry x="200" y="525" width="120" height="60" as="geometry" />
        </mxCell>
        <mxCell id="aPpTX1lo7TZhna0kk5Tj-29" style="edgeStyle=orthogonalEdgeStyle;rounded=0;orthogonalLoop=1;jettySize=auto;html=1;entryX=0.5;entryY=0;entryDx=0;entryDy=0;" edge="1" parent="WIyWlLk6GJQsqaUBKTNV-1" source="aPpTX1lo7TZhna0kk5Tj-20" target="aPpTX1lo7TZhna0kk5Tj-26">
          <mxGeometry relative="1" as="geometry" />
        </mxCell>
        <mxCell id="aPpTX1lo7TZhna0kk5Tj-20" value="SI = (P x&amp;nbsp; R x T) / 100" style="rounded=0;whiteSpace=wrap;html=1;" vertex="1" parent="WIyWlLk6GJQsqaUBKTNV-1">
          <mxGeometry x="500" y="680" width="120" height="60" as="geometry" />
        </mxCell>
        <mxCell id="aPpTX1lo7TZhna0kk5Tj-30" style="edgeStyle=orthogonalEdgeStyle;rounded=0;orthogonalLoop=1;jettySize=auto;html=1;entryX=0.5;entryY=0;entryDx=0;entryDy=0;" edge="1" parent="WIyWlLk6GJQsqaUBKTNV-1" source="aPpTX1lo7TZhna0kk5Tj-21" target="aPpTX1lo7TZhna0kk5Tj-27">
          <mxGeometry relative="1" as="geometry" />
        </mxCell>
        <mxCell id="aPpTX1lo7TZhna0kk5Tj-21" value="CI = P × (1 + R/(100n))^(n×T) − P" style="rounded=0;whiteSpace=wrap;html=1;" vertex="1" parent="WIyWlLk6GJQsqaUBKTNV-1">
          <mxGeometry x="354" y="680" width="120" height="60" as="geometry" />
        </mxCell>
        <mxCell id="aPpTX1lo7TZhna0kk5Tj-31" style="edgeStyle=orthogonalEdgeStyle;rounded=0;orthogonalLoop=1;jettySize=auto;html=1;entryX=0.5;entryY=0;entryDx=0;entryDy=0;" edge="1" parent="WIyWlLk6GJQsqaUBKTNV-1" source="aPpTX1lo7TZhna0kk5Tj-22" target="aPpTX1lo7TZhna0kk5Tj-28">
          <mxGeometry relative="1" as="geometry" />
        </mxCell>
        <mxCell id="aPpTX1lo7TZhna0kk5Tj-22" value="A = PMT × ((1 + R)^n − 1)/R" style="rounded=0;whiteSpace=wrap;html=1;" vertex="1" parent="WIyWlLk6GJQsqaUBKTNV-1">
          <mxGeometry x="200" y="680" width="120" height="60" as="geometry" />
        </mxCell>
        <mxCell id="aPpTX1lo7TZhna0kk5Tj-40" style="edgeStyle=orthogonalEdgeStyle;rounded=0;orthogonalLoop=1;jettySize=auto;html=1;entryX=1;entryY=0.5;entryDx=0;entryDy=0;" edge="1" parent="WIyWlLk6GJQsqaUBKTNV-1" source="aPpTX1lo7TZhna0kk5Tj-26" target="aPpTX1lo7TZhna0kk5Tj-33">
          <mxGeometry relative="1" as="geometry">
            <mxPoint x="490" y="1060" as="targetPoint" />
          </mxGeometry>
        </mxCell>
        <mxCell id="aPpTX1lo7TZhna0kk5Tj-26" value="Print&lt;div&gt;Simple Interest&lt;/div&gt;" style="shape=parallelogram;perimeter=parallelogramPerimeter;whiteSpace=wrap;html=1;fixedSize=1;" vertex="1" parent="WIyWlLk6GJQsqaUBKTNV-1">
          <mxGeometry x="500" y="860" width="120" height="60" as="geometry" />
        </mxCell>
        <mxCell id="aPpTX1lo7TZhna0kk5Tj-35" style="edgeStyle=orthogonalEdgeStyle;rounded=0;orthogonalLoop=1;jettySize=auto;html=1;entryX=0.5;entryY=0;entryDx=0;entryDy=0;" edge="1" parent="WIyWlLk6GJQsqaUBKTNV-1" source="aPpTX1lo7TZhna0kk5Tj-27" target="aPpTX1lo7TZhna0kk5Tj-33">
          <mxGeometry relative="1" as="geometry" />
        </mxCell>
        <mxCell id="aPpTX1lo7TZhna0kk5Tj-27" value="Print&amp;nbsp;&lt;div&gt;Compound&lt;/div&gt;&lt;div&gt;Interest&lt;/div&gt;" style="shape=parallelogram;perimeter=parallelogramPerimeter;whiteSpace=wrap;html=1;fixedSize=1;" vertex="1" parent="WIyWlLk6GJQsqaUBKTNV-1">
          <mxGeometry x="354" y="860" width="120" height="60" as="geometry" />
        </mxCell>
        <mxCell id="aPpTX1lo7TZhna0kk5Tj-39" style="edgeStyle=orthogonalEdgeStyle;rounded=0;orthogonalLoop=1;jettySize=auto;html=1;entryX=0;entryY=0.5;entryDx=0;entryDy=0;" edge="1" parent="WIyWlLk6GJQsqaUBKTNV-1" source="aPpTX1lo7TZhna0kk5Tj-28" target="aPpTX1lo7TZhna0kk5Tj-33">
          <mxGeometry relative="1" as="geometry" />
        </mxCell>
        <mxCell id="aPpTX1lo7TZhna0kk5Tj-28" value="Print&lt;div&gt;Annuity&lt;/div&gt;&lt;div&gt;Plan&lt;/div&gt;" style="shape=parallelogram;perimeter=parallelogramPerimeter;whiteSpace=wrap;html=1;fixedSize=1;" vertex="1" parent="WIyWlLk6GJQsqaUBKTNV-1">
          <mxGeometry x="200" y="860" width="120" height="60" as="geometry" />
        </mxCell>
        <mxCell id="aPpTX1lo7TZhna0kk5Tj-33" value="End" style="rounded=1;whiteSpace=wrap;html=1;" vertex="1" parent="WIyWlLk6GJQsqaUBKTNV-1">
          <mxGeometry x="354" y="1020" width="120" height="60" as="geometry" />
        </mxCell>
      </root>
    </mxGraphModel>
  </diagram>
</mxfile>
